# AST/ASF file generated using VICON BodyLanguage
# -----------------------------------------------
:version 1.10
:name VICON
:units
  mass 1.0
  length 0.45
  angle deg
:documentation
   .ast/.asf automatically generated from VICON data using
   VICON BodyBuilder and BodyLanguage model FoxedUp or BRILLIANT.MOD
:root
   order TX TY TZ RX RY RZ
   axis XYZ
   position 0 0 0  
   orientation 0 0 0 
:bonedata
  begin
     id 1 
     name lhipjoint
     direction 0.521452 -0.77106 0.36545 
     length 2.0933 
     axis 0 0 0  XYZ
  end
  begin
     id 2 
     name lfemur
     direction 0.34202 -0.939693 0  
     length 6.83441  
     axis 0 0 20  XYZ
    dof rx ry rz
    limits (-160.0 20.0)
           (-70.0 70.0)
           (-60.0 70.0)
  end
  begin
     id 3 
     name ltibia
     direction 0.34202 -0.939693 0   
     length 7.28749   
     axis 0 0 20   XYZ
    dof rx
    limits (-10.0 170.0)
  end
  begin
     id 4 
     name lfoot
     direction 0.100608 -0.276418 0.955757   
     length 1.52195   
     axis -90 7.62852e-016 20   XYZ
    dof rx rz
    limits (-45.0 90.0)
           (-70.0 20.0)
  end
  begin
     id 5 
     name ltoes
     direction 1.53558e-011 -4.21907e-011 1   
     length 0.770459   
     axis -90 7.62852e-016 20   XYZ
    dof rx
    limits (-90.0 20.0)
  end
  begin
     id 6 
     name rhipjoint
     direction -0.488071 -0.788702 0.373812   
     length 2.04648  
     axis 0 0 0  XYZ 
  end
  begin
     id 7 
     name rfemur
     direction -0.34202 -0.939693 0   
     length 6.92583   
     axis 0 0 -20   XYZ
    dof rx ry rz
    limits (-160.0 20.0)
           (-70.0 70.0)
           (-70.0 60.0)
  end
  begin
     id 8 
     name rtibia
     direction -0.34202 -0.939693 0   
     length 7.41043   
     axis 0 0 -20   XYZ
    dof rx
    limits (-10.0 170.0)
 end
 begin
     id 9 
     name rfoot
     direction -0.0784433 -0.215521 0.973343   
     length 1.67708  
     axis -90 -7.62852e-016 -20   XYZ
    dof rx rz
    limits (-45.0 90.0)
           (-20.0 70.0)
  end
  begin
     id 10 
     name rtoes
     direction -1.53551e-011 -4.21842e-011 1   
     length 0.849787   
     axis -90 -7.62852e-016 -20   XYZ
    dof rx
    limits (-90.0 20.0)
  end
  begin
     id 11 
     name lowerback
     direction -0.0122332 0.997575 -0.0685192   
     length 1.98724   
     axis 0 0 0   XYZ
    dof rx ry rz
    limits (-20.0 45.0)
           (-30.0 30.0)
           (-30.0 30.0)
  end
  begin
     id 12 
     name upperback
     direction 0.0182347 0.999724 -0.0148421   
     length 1.99029   
     axis 0 0 0   XYZ
    dof rx ry rz
    limits (-20.0 45.0)
           (-30.0 30.0)
           (-30.0 30.0)
  end
  begin
     id 13 
     name thorax
     direction 0.0242908 0.99956 0.0170184   
     length 1.99573   
     axis 0 0 0   XYZ
    dof rx ry rz
    limits (-20.0 45.0)
           (-30.0 30.0)
           (-30.0 30.0)
  end
  begin
     id 14 
     name lowerneck
     direction 0.0654488 0.985533 0.156338   
     length 1.4285   
     axis 0 0 0   XYZ
    dof rx ry rz
    limits (-20.0 45.0)
           (-30.0 30.0)
           (-30.0 30.0)
  end
  begin
     id 15 
     name upperneck
     direction -0.02953 0.998556 -0.0448842   
     length 1.44709   
     axis 0 0 0   XYZ
    dof rx ry rz
    limits (-20.0 45.0)
           (-30.0 30.0)
           (-30.0 30.0)
  end
  begin
     id 16
     name head
     direction -0.0155588 0.999386 -0.0314063  
     length 1.44689  
     axis 0 0 0   XYZ
    dof rx ry rz
    limits (-20.0 45.0)
           (-30.0 30.0)
           (-30.0 30.0)
  end
  begin
     id 17 
     name lclavicle
     direction 0.968229 0.236071 -0.0824755  
     length 3.60593  
     axis 0 0 0   XYZ
    dof ry rz
    limits (-20.0 10.0)
           (0.0 20.0)
  end
  begin
     id 18 
     name lhumerus
     direction 1 -4.48968e-011 7.8138e-029   
     length 5.06035   
     axis 180 -30 -90   XYZ
    dof rx ry rz
    limits (-60.0 90.0)
           (-90.0 90.0)
           (-90.0 90.0)
  end
  begin
     id 19
     name lradius
     direction 1 -4.48967e-011 9.02887e-028   
     length 3.1478   
     axis 180 -30 -90   XYZ
    dof rx
    limits (-10.0 170.0)
  end
  begin
     id 20
     name lwrist
     direction 1 -4.48961e-011 7.20928e-028   
     length 1.5739   
     axis -5.52449e-016 90 90   XYZ
    dof ry
    limits (-180.0 0.0)
 end
  begin
     id 21 
     name lhand
     direction 1 -4.48972e-011 1.44186e-027   
     length 0.606747   
     axis -9.20027e-016 90 90   XYZ
    dof rx rz
    limits (-90.0 90.0)
           (-45.0 45.0)
  end
  begin
     id 22 
     name lfingers
     direction 1 -4.48943e-011 2.88371e-027   
     length 0.489175   
     axis -1.84005e-015 90 90   XYZ
    dof rx
    limits (0.0 90.0)
  end
  begin
     id 23
     name lthumb
     direction 0.707107 -6.34917e-011 0.707107   
     length 0.70236   
     axis -90 45 2.85299e-015   XYZ
    dof rx rz
    limits (-45.0 45.0)
           (-45.0 45.0)
  end
  begin
     id 24 
     name rclavicle
     direction -0.978165 0.207816 0.0022268   
     length 3.35425  
     axis 0 0 0   XYZ 
    dof ry rz
    limits (-10.0 20.0)
           (-20.0 0.0)
  end
  begin
     id 25 
     name rhumerus
     direction -1 -4.48964e-011 -4.02159e-027  
     length 5.12273   
     axis 180 30 90   XYZ
    dof rx ry rz
    limits (-90.0 60.0)
           (-90.0 90.0)
           (-90.0 90.0)
  end
  begin
     id 26 
     name rradius
     direction -1 -4.48966e-011 1.62746e-027   
     length 3.422   
     axis 180 30 90   XYZ
    dof rx
    limits (-10.0 170.0)
  end
  begin
     id 27 
     name rwrist
     direction -1 -4.4896e-011 7.20928e-028   
     length 1.711   
     axis -5.52449e-016 -90 -90   XYZ
    dof ry
    limits (-180.0 0.0)
  end
  begin
     id 28
     name rhand
     direction -1 -4.48979e-011 1.44186e-027   
     length 0.704599   
     axis -9.20027e-016 -90 -90   XYZ
    dof rx rz
    limits (-90.0 90.0)
           (-45.0 45.0)
  end
  begin
     id 29
     name rfingers
     direction -1 -4.48962e-011 2.88371e-027   
     length 0.568066   
     axis -1.84005e-015 -90 -90   XYZ
    dof rx
    limits (0.0 90.0)
  end
  begin
     id 30
     name rthumb
     direction -0.707107 -6.34949e-011 0.707107   
     length 0.815633   
     axis -90 -45 -2.85299e-015   XYZ
    dof rx rz
    limits (-45.0 45.0)
           (-45.0 45.0)
  end
:hierarchy
  begin
    root lhipjoint rhipjoint lowerback
    lhipjoint lfemur
    lfemur ltibia
    ltibia lfoot
    lfoot ltoes
    rhipjoint rfemur
    rfemur rtibia
    rtibia rfoot
    rfoot rtoes
    lowerback upperback
    upperback thorax
    thorax lowerneck lclavicle rclavicle
    lowerneck upperneck
    upperneck head
    lclavicle lhumerus
    lhumerus lradius
    lradius lwrist
    lwrist lhand lthumb
    lhand lfingers
    rclavicle rhumerus
    rhumerus rradius
    rradius rwrist
    rwrist rhand rthumb
    rhand rfingers
  end

#!OML:ASF E:\id_vita\Project 1\Capture day 1\Session 1\Male1.ASF
:FULLY-SPECIFIED
:DEGREES
258
root 24.9225 16.1178 -1.4978 787.58 86.9893 786.364
lowerback -5.02961 -1.06568 -5.83207
upperback 0.0635108 -1.01945 -1.09664
thorax 2.97337 -0.57518 2.06069
lowerneck -8.44837 1.48827 7.76625
upperneck 8.88143 1.12517 -0.657527
head 4.09377 0.797823 -1.38768
rclavicle 3.39798e-015 3.97569e-015
rhumerus -32.9881 -35.5918 -72.6275
rradius 8.90119
rwrist 36.8777
rhand -21.6633 36.0205
rfingers 7.12502
rthumb 4.73385 6.09334
lclavicle 3.39798e-015 3.97569e-015
lhumerus -30.6937 37.1137 68.1888
lradius 15.8208
lwrist -13.633
lhand -14.54 41.6016
lfingers 7.12502
lthumb 11.6084 71.2601
rfemur -18.7135 -3.55915 16.2479
rtibia 66.4796
rfoot -8.79181 0.218464
rtoes 4.73573
lfemur -11.9985 0.379977 -27.5267
ltibia 33.3475
lfoot -25.441 0.72637
ltoes -10.21
259
root 25.0874 16.0976 -1.50668 795.391 87.4535 794.095
lowerback -4.87817 -1.23748 -5.5322
upperback -0.0448957 -1.28838 -0.936736
thorax 2.79362 -0.70075 2.04147
lowerneck -6.93998 1.34956 7.46468
upperneck 7.04683 1.0953 -0.293977
head 3.59694 0.753319 -1.36353
rclavicle -3.85145e-015 0
rhumerus -33.505 -35.7837 -72.0377
rradius 7.34381
rwrist 36.3151
rhand -22.2256 34.4169
rfingers 7.12502
rthumb 4.19091 4.47834
lclavicle -3.85145e-015 0
lhumerus -28.0455 33.9206 71.3809
lradius 17.0231
lwrist -10.2895
lhand -14.5977 41.2221
lfingers 7.12502
lthumb 11.5527 70.8837
rfemur -20.0837 -3.77458 16.7813
rtibia 65.6504
rfoot -10.5592 -0.483034
rtoes 5.50272
lfemur -11.544 0.176768 -27.2297
ltibia 33.682
lfoot -26.2003 0.922398
ltoes -10.3819
260
root 25.2495 16.0748 -1.50683 807.507 87.7975 806.151
lowerback -4.66774 -1.42339 -5.42154
upperback -0.112324 -1.56695 -0.748869
thorax 2.62908 -0.835324 2.15804
lowerneck -7.28012 1.35451 7.31883
upperneck 7.39298 1.07487 -0.207519
head 3.78171 0.752637 -1.3111
rclavicle -2.52208e-015 2.94201e-014
rhumerus -34.0379 -35.9059 -71.2961
rradius 5.87167
rwrist 35.5841
rhand -22.9257 33.5228
rfingers 7.12502
rthumb 3.51481 3.57201
lclavicle -2.52208e-015 2.94201e-014
lhumerus -25.6696 31.0157 74.1188
lradius 18.3127
lwrist -7.53767
lhand -14.5846 41.5033
lfingers 7.12502
lthumb 11.5654 71.1642
rfemur -21.3971 -3.8593 17.3184
rtibia 64.5966
rfoot -12.018 -1.37801
rtoes 5.44794
lfemur -11.0976 0.0546554 -26.9293
ltibia 33.9921
lfoot -26.9154 0.944309
ltoes -10.6177
261
root 25.4242 16.0545 -1.50653 820.465 87.959 819.096
lowerback -4.53184 -1.59115 -5.39937
upperback -0.175327 -1.80903 -0.583336
thorax 2.51114 -0.953519 2.30314
lowerneck -7.26685 1.25696 7.25842
upperneck 7.29081 0.957313 -0.268202
head 3.73749 0.686639 -1.32691
rclavicle 1.46666e-014 9.54166e-015
rhumerus -34.9001 -35.8769 -70.2922
rradius 4.66922
rwrist 34.9268
rhand -23.5413 33.2461
rfingers 7.12502
rthumb 2.92032 3.28635
lclavicle 1.46666e-014 9.54166e-015
lhumerus -23.6747 28.3504 76.3036
lradius 19.5726
lwrist -5.25607
lhand -14.8665 41.2916
lfingers 7.12502
lthumb 11.2935 70.9676
rfemur -22.5657 -3.84417 17.7274
rtibia 63.3406
rfoot -13.0163 -2.23908
rtoes 3.7424
lfemur -10.4775 -0.131987 -26.7138
ltibia 34.1859
lfoot -27.5857 1.06392
ltoes -10.763
262
root 25.6053 16.0288 -1.51012 830.705 87.6083 829.323
lowerback -4.48628 -1.76569 -5.75786
upperback -0.179592 -2.02611 -0.553762
thorax 2.51266 -1.06553 2.51947
lowerneck -7.60216 1.23718 7.43405
upperneck 7.3772 0.896942 -0.474054
head 3.83715 0.654587 -1.43313
rclavicle 6.87671e-015 7.55382e-015
rhumerus -35.737 -35.8631 -69.3156
rradius 3.63513
rwrist 34.5165
rhand -23.9226 32.6518
rfingers 7.12502
rthumb 2.5521 2.68735
lclavicle 6.87671e-015 7.55382e-015
lhumerus -21.8983 25.5462 78.227
lradius 21.0824
lwrist -2.90406
lhand -14.9679 41.1018
lfingers 7.12502
lthumb 11.1957 70.7831
rfemur -23.6384 -3.96244 17.5753
rtibia 61.9499
rfoot -13.9637 -3.08839
rtoes -0.281855
lfemur -9.72681 -0.336141 -26.9954
ltibia 34.1663
lfoot -28.1804 1.21574
ltoes -10.6885
263
root 25.7836 16.0012 -1.50848 835.745 86.998 834.355
lowerback -4.44678 -1.93389 -6.41927
upperback -0.145813 -2.2141 -0.595265
thorax 2.56632 -1.16762 2.83242
lowerneck -8.07376 1.21969 7.6328
upperneck 7.65156 0.82409 -0.706078
head 4.03171 0.620854 -1.55593
rclavicle -1.4912e-014 -1.33186e-014
rhumerus -36.6271 -35.8902 -68.3421
rradius 2.83747
rwrist 34.343
rhand -24.3261 31.9551
rfingers 7.12502
rthumb 2.16246 1.98629
lclavicle -1.4912e-014 -1.33186e-014
lhumerus -20.1949 23.0695 79.8314
lradius 22.5265
lwrist -0.974186
lhand -14.6246 41.5046
lfingers 7.12502
lthumb 11.5268 71.1676
rfemur -24.6282 -4.02779 17.1818
rtibia 60.32
rfoot -14.7131 -3.8915
rtoes -1.52068
lfemur -8.92404 -0.383914 -27.504
ltibia 33.9963
lfoot -28.7578 1.39631
ltoes -10.9812
264
root 25.9525 15.9788 -1.51868 838.818 86.2831 837.179
lowerback -4.59615 -2.14451 -6.98396
upperback -0.165978 -2.44709 -0.68673
thorax 2.67271 -1.29047 3.0301
lowerneck -7.7489 1.29133 7.2963
upperneck 7.12153 0.96325 -0.336595
head 3.77463 0.682274 -1.35694
rclavicle 3.6918e-014 9.54166e-015
rhumerus -37.3318 -35.8574 -67.4423
rradius 1.97429
rwrist 34.1505
rhand -24.759 31.7079
rfingers 7.12502
rthumb 1.74437 1.73532
lclavicle 3.6918e-014 9.54166e-015
lhumerus -18.5608 21.0806 81.1384
lradius 23.7952
lwrist 0.437448
lhand -14.3695 41.5177
lfingers 7.12502
lthumb 11.7728 71.1669
rfemur -25.8405 -4.29065 16.5968
rtibia 58.4647
rfoot -15.1416 -3.95971
rtoes 1.80054
lfemur -8.28281 -0.385018 -28.1701
ltibia 33.6153
lfoot -29.1093 1.53532
ltoes -11.5212
265
root 26.1353 15.9754 -1.51088 846.257 86.5465 844.621
lowerback -4.66517 -2.25284 -6.77297
upperback -0.0345133 -2.60297 -0.449394
thorax 2.86582 -1.37825 3.14014
lowerneck -7.88161 1.27991 7.12163
upperneck 6.97449 0.946833 -0.202304
head 3.74366 0.671113 -1.28062
rclavicle 3.57564e-014 1.13307e-014
rhumerus -37.9319 -35.8466 -66.6306
rradius 1.25677
rwrist 34.0298
rhand -25.0378 32.0142
rfingers 7.12502
rthumb 1.47507 2.03955
lclavicle 3.57564e-014 1.13307e-014
lhumerus -17.0566 19.1553 82.2483
lradius 25.1956
lwrist 1.68188
lhand -14.7049 40.8785
lfingers 7.12502
lthumb 11.4493 70.5459
rfemur -26.5627 -3.86681 17.289
rtibia 56.2222
rfoot -15.9191 -4.66009
rtoes -1.39324
lfemur -7.3031 -0.27541 -27.5813
ltibia 33.054
lfoot -29.4839 1.59797
ltoes -11.6657
266
root 26.3208 15.9729 -1.51106 849.659 86.1299 847.95
lowerback -4.71479 -2.41131 -7.06821
upperback 0.0186351 -2.78902 -0.482027
thorax 2.98191 -1.47882 3.2521
lowerneck -8.21918 1.22411 7.16095
upperneck 7.09511 0.834393 -0.171956
head 3.84882 0.621718 -1.28531
rclavicle -1.60845e-014 -2.78299e-015
rhumerus -39.119 -35.8009 -65.6536
rradius 1.26729
rwrist 34.0504
rhand -25.0686 32.0343
rfingers 7.12502
rthumb 1.44528 2.05948
lclavicle -1.60845e-014 -2.78299e-015
lhumerus -15.6132 17.2014 83.101
lradius 26.5582
lwrist 2.73549
lhand -15.1498 40.5057
lfingers 7.12502
lthumb 11.0203 70.1964
rfemur -27.2441 -3.79913 17.1057
rtibia 53.7538
rfoot -15.9124 -5.01056
rtoes -1.25392
lfemur -6.26122 -0.337373 -27.7638
ltibia 32.2854
lfoot -29.8259 1.59156
ltoes -12.0665
267
root 26.5102 15.9702 -1.51608 851.01 85.5329 849.196
lowerback -4.8294 -2.57936 -7.46312
upperback 0.0604779 -2.97124 -0.606002
thorax 3.12463 -1.57804 3.32162
lowerneck -8.28635 1.20181 7.10566
upperneck 6.9561 0.795853 -0.0236204
head 3.80863 0.604559 -1.22698
rclavicle -1.31462e-015 1.64991e-014
rhumerus -40.5309 -35.6933 -64.5743
rradius 1.53271
rwrist 34.0174
rhand -24.9492 31.2566
rfingers 7.12502
rthumb 1.56066 1.2826
lclavicle -1.31462e-015 1.64991e-014
lhumerus -14.0687 15.2963 83.778
lradius 27.6068
lwrist 3.6756
lhand -15.1855 40.1448
lfingers 7.12502
lthumb 10.9859 69.8374
rfemur -27.8643 -3.75563 16.6186
rtibia 51.0225
rfoot -16.1763 -5.26213
rtoes -0.313705
lfemur -5.16346 -0.445392 -28.1628
ltibia 31.411
lfoot -30.1187 1.44609
ltoes -12.0747
268
root 26.6953 15.9666 -1.5186 851.804 85.0927 849.713
lowerback -5.08487 -2.71733 -7.834
upperback 0.026498 -3.10736 -0.629392
thorax 3.26804 -1.65351 3.48092
lowerneck -8.26382 1.20233 7.00836
upperneck 6.75041 0.808024 0.0406827
head 3.7296 0.605024 -1.18618
rclavicle 8.05311e-015 8.94531e-015
rhumerus -41.8533 -35.5181 -63.4072
rradius 1.70615
rwrist 33.9198
rhand -24.6839 30.2697
rfingers 7.12502
rthumb 1.81684 0.297668
lclavicle 8.05311e-015 8.94531e-015
lhumerus -12.6485 13.4848 84.4347
lradius 28.5065
lwrist 4.52993
lhand -15.3157 39.4171
lfingers 7.12502
lthumb 10.8602 69.1163
rfemur -28.6245 -3.44144 16.2194
rtibia 48.1407
rfoot -16.1441 -5.48961
rtoes 0.299597
lfemur -4.20955 -0.376677 -28.4145
ltibia 30.3876
lfoot -30.3516 1.09629
ltoes -11.7213
269
root 26.877 15.9598 -1.51727 854.407 84.7733 852.055
lowerback -5.23061 -2.88562 -8.07403
upperback -0.114321 -3.31013 -0.560331
thorax 3.24565 -1.75304 3.66436
lowerneck -7.99962 1.24139 7.12715
upperneck 6.53134 0.888085 -0.162724
head 3.60755 0.631985 -1.27002
rclavicle 8.75507e-015 -1.39149e-015
rhumerus -43.1982 -35.2051 -62.1915
rradius 1.83602
rwrist 33.7776
rhand -24.3379 30.0204
rfingers 7.12502
rthumb 2.15101 0.0514568
lclavicle 8.75507e-015 -1.39149e-015
lhumerus -11.5941 12.0299 84.9499
lradius 29.6449
lwrist 5.01188
lhand -15.5554 38.9915
lfingers 7.12502
lthumb 10.6291 68.7027
rfemur -29.2378 -3.08491 16.0319
rtibia 45.1154
rfoot -15.8024 -5.89314
rtoes -0.496185
lfemur -3.22827 -0.167577 -28.3876
ltibia 29.2753
lfoot -30.6986 0.625709
ltoes -11.7118
270
root 27.0657 15.9537 -1.51321 857.485 84.4256 855.003
lowerback -5.33259 -3.09633 -8.26266
upperback -0.160654 -3.5708 -0.530307
thorax 3.3012 -1.88553 3.77114
lowerneck -7.84499 1.19619 7.09717
upperneck 6.352 0.839153 -0.0483462
head 3.51036 0.607331 -1.2278
rclavicle 3.52136e-014 1.39149e-015
rhumerus -44.2851 -34.9421 -61.234
rradius 1.7657
rwrist 33.6507
rhand -24.2769 30.1087
rfingers 7.12502
rthumb 2.20997 0.14042
lclavicle 3.52136e-014 1.39149e-015
lhumerus -10.4169 10.5024 85.2128
lradius 30.6672
lwrist 5.61014
lhand -15.5393 39.2491
lfingers 7.12502
lthumb 10.6445 68.9595
rfemur -29.5691 -2.70907 15.8548
rtibia 41.9762
rfoot -15.6195 -6.31116
rtoes -0.145738
lfemur -2.08265 0.0391069 -28.2633
ltibia 28.1306
lfoot -31.0882 0.160885
ltoes -12.0769
271
root 27.2578 15.9517 -1.51137 858.577 83.9161 855.93
lowerback -5.48995 -3.29823 -8.64318
upperback -0.117492 -3.79329 -0.567177
thorax 3.48686 -2.00815 3.9111
lowerneck -8.26906 1.10817 7.06925
upperneck 6.35398 0.685547 -0.0119844
head 3.58707 0.532764 -1.22033
rclavicle -2.61526e-015 -9.74045e-015
rhumerus -45.3543 -34.7624 -60.3298
rradius 1.97213
rwrist 33.534
rhand -24.2876 30.171
rfingers 7.12502
rthumb 2.19958 0.202569
lclavicle -2.61526e-015 -9.74045e-015
lhumerus -8.94209 8.60037 85.4022
lradius 31.4192
lwrist 6.60613
lhand -15.2174 40.155
lfingers 7.12502
lthumb 10.9551 69.8491
rfemur -29.8987 -2.33051 15.3647
rtibia 38.7742
rfoot -15.4119 -6.36449
rtoes 2.82195
lfemur -0.928714 0.308491 -28.3418
ltibia 26.923
lfoot -31.4315 -0.556944
ltoes -12.0378
272
root 27.4426 15.9478 -1.51342 859.64 83.3691 856.702
lowerback -5.62012 -3.47995 -9.00118
upperback -0.180437 -3.99722 -0.58566
thorax 3.54565 -2.11347 4.06325
lowerneck -8.1871 1.10084 6.88064
upperneck 6.07235 0.704869 0.0396286
head 3.46983 0.531737 -1.16664
rclavicle 1.04432e-014 -4.07509e-015
rhumerus -46.7258 -34.5115 -59.197
rradius 2.62625
rwrist 33.3542
rhand -23.9543 30.4902
rfingers 7.12502
rthumb 2.5215 0.525377
lclavicle 1.04432e-014 -4.07509e-015
lhumerus -7.64982 7.05977 85.6219
lradius 32.2542
lwrist 7.21812
lhand -14.8223 40.9849
lfingers 7.12502
lthumb 11.3361 70.6585
rfemur -30.3429 -1.93319 14.7881
rtibia 35.6014
rfoot -13.9772 -7.13458
rtoes -2.3645
lfemur 0.153024 0.49765 -28.4381
ltibia 25.5768
lfoot -31.7297 -1.44305
ltoes -11.2892
